<svg xmlns="http://www.w3.org/2000/svg" width="300" height="73" viewBox="0 0 300 73">
  <defs>
    <style>
      .cls-1 {
        fill: #282828;
        fill-rule: evenodd;
      }
    </style>
  </defs>
  <path id="墨书香" class="cls-1" d="M0.961,0.012s22.884-.02,42.2,19.427C61.276,37.687,58.048,54.1,58.048,54.1s5.644,6.764,8.783,11.237a14.649,14.649,0,0,1,1.909,4s0.649,3.288,0,3.619c-0.748.381-2.482-2.095-2.482-2.095s-8.394-10.678-16.993-20.57C38.031,37.369,25.132,23.21,24.636,23.629s26.73,33.9,26.73,33.9,3.064,3.586-4.773,3.238c-2.44-.108-8.738-1.628-19.284-10.666C18.145,42.25,10.48,31.275,10.316,30.676s-0.334-1.28.764-1.524c2.311-.513,6.887.609,7.064,0.19,0.21-.5-7.049-3.909-11.838-10.475A33.352,33.352,0,0,1,1.724,9.725,40.963,40.963,0,0,1,.006,1.155,1.591,1.591,0,0,1,.2.2,0.98,0.98,0,0,1,.961.012Zm107.4,21.921h-10.5V12.376h17.231v9.557H109.73l2.334-2.2q-2.883-2.955-7.483-7.082L101.9,15.264q2.677,2.545,6.453,6.669h0Zm13.936-2.2,2.2,2.2h-5.149V12.376h17.712v9.557h-11.19Q129.3,18.7,132.8,14.92l-2.815-2.475a76.8,76.8,0,0,1-7.689,7.288h0ZM98.815,42.56l-1.922-1.169h11.877l-2.4.55q0.068,0.276.206,0.894,1.3,5.5,1.785,8.732l4.051-.756q-0.618-3.231-1.579-7.288-0.276-1.375-.481-2.131h12.838l-2.06.963q2.745,5.089,4.463,9.145l3.775-1.719q-1.305-2.612-3.158-6.188-0.756-1.375-1.167-2.2h12.838l-2.265,1.788q2.47,2.751,6.247,7.357,1.578,2.063,2.54,3.163l3.295-2.819q-5.081-5.982-8.375-9.488H146.6V37.61H119.341V33.278h22.518V29.565H119.341V25.577h22.037V8.663H93.6V25.577h21.488v3.988H92.567v3.713h22.518V37.61H87.35v3.782h7.689A119.977,119.977,0,0,1,87.625,51.7l3.364,2.475q2.951-4.125,7.826-11.62h0Zm48.536,19.733H119.479V56.655h20.732V52.8H119.479V46.548h-4.325V52.8H95.588v3.85h19.566v5.638H87.35v3.919h60V62.293ZM207.588,35.96H192V22.483h17.438Zm13.25,0h-8.719q2.265-14.026,2.334-15.883a15.347,15.347,0,0,1,.275-1.925H192V6.6h-4.668V18.152H168.251v4.332h19.085V35.96H163.583V40.5h23.753v27.64H192V40.5h23.96a84.473,84.473,0,0,1-1.648,12.651q-0.412,2.82-3.913,2.613a46.636,46.636,0,0,1-9.474-.963l0.824,5.019q4.8,0.412,8.581.413,6.864,0.206,8.1-5.225,1.509-5.843,2.4-19.046h0ZM220.22,14.026q-4.942-4.332-7.689-6.463l-2.677,2.957q2.95,2.475,8.512,7.838,1.3,1.238,1.923,1.856l3.089-3.438q-1.1-.962-3.158-2.75h0Zm33.6,46.548V52.736h28.7v7.838h-28.7Zm0-11.826V41.8h28.7v6.944h-28.7Zm32.953-11H249.564V68.756h4.256V64.631h28.7v4.125h4.256V37.747ZM270.3,35.135V24.684q8.856,9.764,27.185,17.808l2.4-4.125Q282.653,31.7,274.416,23.859h23.272V19.8H270.3V12.445q13.866-1.305,22.1-2.819l-2.471-3.988a464.916,464.916,0,0,1-46.889,4.469l1.3,4.263q5.9-.206,15.584-1.031,3.981-.343,5.9-0.481V19.8h-27.46v4.057h23.135q-8.307,8.32-25.126,15.126l2.334,3.919q17.712-7.7,27.117-18.152V35.135H270.3Z"/>
</svg>
